<svg width="1200" height="760" viewBox="0 0 1200 760" fill="none" xmlns="http://www.w3.org/2000/svg">
  <defs>
    <linearGradient id="bg" x1="0" y1="0" x2="1200" y2="760" gradientUnits="userSpaceOnUse">
      <stop stop-color="#FFF4E8"/>
      <stop offset="1" stop-color="#EAF8F1"/>
    </linearGradient>
    <linearGradient id="accent" x1="220" y1="140" x2="860" y2="520" gradientUnits="userSpaceOnUse">
      <stop stop-color="#FFCCA7"/>
      <stop offset="1" stop-color="#A9E5CE"/>
    </linearGradient>
  </defs>
  <rect width="1200" height="760" rx="42" fill="url(#bg)"/>
  <rect x="120" y="110" width="960" height="540" rx="36" fill="url(#accent)" opacity="0.6"/>

  <circle cx="355" cy="270" r="62" fill="#FFDDBE"/>
  <rect x="275" y="330" width="165" height="200" rx="82" fill="#EF6C3E"/>
  <rect x="300" y="420" width="120" height="22" rx="11" fill="#FDF4EC" opacity="0.8"/>

  <circle cx="845" cy="270" r="62" fill="#FFDDBE"/>
  <rect x="760" y="330" width="170" height="200" rx="85" fill="#2F7F6D"/>
  <rect x="785" y="420" width="120" height="22" rx="11" fill="#FDF4EC" opacity="0.8"/>

  <circle cx="540" cy="430" r="46" fill="#FFE5CF"/>
  <rect x="490" y="470" width="100" height="122" rx="50" fill="#FF9A73"/>
  <circle cx="640" cy="430" r="46" fill="#FFE5CF"/>
  <rect x="590" y="470" width="100" height="122" rx="50" fill="#7ECFAE"/>

  <path d="M515 395C526 378 553 378 565 395" stroke="#8A5A3B" stroke-width="8" stroke-linecap="round"/>
  <path d="M615 395C626 378 653 378 665 395" stroke="#8A5A3B" stroke-width="8" stroke-linecap="round"/>

  <circle cx="560" cy="228" r="14" fill="#F7A66C"/>
  <circle cx="650" cy="228" r="14" fill="#81C8A7"/>
  <circle cx="694" cy="174" r="12" fill="#F7A66C"/>

  <path d="M573 230C573 210 599 210 599 230C599 253 573 253 573 230Z" fill="#FFFFFF" opacity="0.35"/>
  <path d="M516 185C516 165 541 165 541 185C541 208 516 208 516 185Z" fill="#FFFFFF" opacity="0.35"/>
</svg>
